<svg id="Capa_1" enable-background="new 0 0 512 512" height="512" viewBox="0 0 512 512" width="512" xmlns="http://www.w3.org/2000/svg"><g><g><path d="m105.285 166.987 140.389 337.696 13.229-8.969-65.3-174.898-74.467-159.587z" fill="#e1fd9f"/><path d="m132.987 155.471-13.851 5.758 140.255 337.375 7.453-21.149z" fill="#a5e887"/></g><g><path d="m35.332 120.465c.565 1.359 1.173 2.687 1.821 3.983 5.347 10.686 3.84 23.686-3.912 32.779-14.587 17.11-19.271 41.599-10.048 63.784 5.145 12.376 13.852 22.189 24.437 28.748 11.263 6.979 17.245 20.183 14.125 33.06-3.212 13.254-2.079 27.697 4.317 41.119 8.528 17.897 24.968 30.006 43.391 33.812 35.405 7.315 69.789 18.906 101.425 36.404l6.599 3.65-25.125-168.752-123.723-189.29c-31.483 13.088-46.395 49.22-33.307 80.703z" fill="#00cc76"/><path d="m232.329 172.975c2.816-12.13 2-25.223-3.146-37.599-9.223-22.185-29.887-36.136-52.305-37.862-11.914-.917-22.193-9.017-25.997-20.345-.461-1.374-.974-2.741-1.539-4.1-13.088-31.483-49.221-46.395-80.704-33.307l148.847 358.042 2.067-7.252c9.908-34.769 25.941-67.32 45.725-97.578 10.295-15.745 13.306-35.94 6.632-54.608-5.005-14-14.444-24.99-26.106-32.061-11.329-6.87-16.47-20.424-13.474-33.33z" fill="#009959"/></g><g><path d="m406.715 166.987-140.389 337.696-13.229-8.969 65.3-174.898 74.467-159.587z" fill="#a5e887"/><path d="m379.013 155.471 13.851 5.758-140.255 337.375-7.453-21.149z" fill="#e1fd9f"/></g><g><path d="m476.668 120.465c-.565 1.359-1.173 2.687-1.821 3.983-5.347 10.686-3.84 23.686 3.912 32.779 14.587 17.11 19.271 41.599 10.048 63.784-5.145 12.376-13.852 22.189-24.437 28.748-11.263 6.979-17.245 20.183-14.125 33.06 3.212 13.254 2.079 27.697-4.317 41.119-8.528 17.897-24.968 30.006-43.391 33.812-35.405 7.315-69.789 18.906-101.425 36.404l-6.599 3.65 25.125-168.752 123.722-189.29c31.484 13.088 46.396 49.22 33.308 80.703z" fill="#007845"/><path d="m279.671 172.975c-2.816-12.13-2-25.223 3.146-37.599 9.223-22.185 29.887-36.136 52.305-37.862 11.914-.917 22.193-9.017 25.997-20.345.461-1.374.974-2.741 1.539-4.1 13.088-31.483 49.221-46.395 80.704-33.307l-148.848 358.041-2.067-7.252c-9.908-34.769-25.941-67.32-45.725-97.578-10.295-15.745-13.306-35.94-6.632-54.608 5.005-14 14.444-24.99 26.106-32.061 11.33-6.869 16.471-20.423 13.475-33.329z" fill="#009959"/></g><g><g><path d="m194.265 61.735c0 1.472.052 2.931.153 4.377.835 11.92-5.546 23.345-16.196 28.766-20.037 10.2-33.763 31.014-33.763 55.04 0 13.403 4.272 25.807 11.529 35.926 7.721 10.767 8.176 25.257.352 35.949-8.054 11.006-12.552 24.777-11.799 39.626 1.004 19.799 11.537 37.292 27.087 47.878 29.885 20.345 57.185 44.248 79.68 72.549l4.692 5.903 41.58-165.468-41.58-222.281c-34.095 0-61.735 27.64-61.735 61.735z" fill="#a5e887"/><path d="m356.012 185.843c7.256-10.119 11.529-22.523 11.529-35.926 0-24.025-13.726-44.84-33.763-55.04-10.649-5.421-17.031-16.845-16.196-28.766.101-1.446.153-2.905.153-4.377 0-34.094-27.64-61.734-61.735-61.734v387.749l4.692-5.903c22.495-28.302 49.795-52.204 79.68-72.549 15.55-10.587 26.083-28.079 27.087-47.878.753-14.849-3.745-28.62-11.799-39.626-7.825-10.693-7.369-25.182.352-35.95z" fill="#00cc76"/></g></g><g><path d="m241 131.546v380.454h15l7.5-204.508-7.5-175.946z" fill="#e1fd9f"/><path d="m256 131.546h15v380.454h-15z" fill="#a5e887"/></g></g></svg>